<svg width="32" height="32" viewBox="0 0 32 32" fill="none" xmlns="http://www.w3.org/2000/svg">
<rect width="32" height="32" rx="4" fill="white"/>
<mask id="mask0_233_345" style="mask-type:luminance" maskUnits="userSpaceOnUse" x="3" y="6" width="26" height="21">
<path d="M18.6001 6H13.4002C8.49796 6 6.04619 6 4.52391 7.52358C3.42672 8.61947 3.11992 10.1976 3.03412 12.8249H28.9662C28.8804 10.1976 28.5736 8.61947 27.4764 7.52358C25.9541 6 23.5024 6 18.6001 6ZM13.4002 26.7997H18.6001C23.5024 26.7997 25.9541 26.7997 27.4764 25.2762C28.9987 23.7526 29 21.3021 29 16.3999C29 15.8261 28.9991 15.2845 28.9974 14.7749H3.00293C3.00033 15.2845 2.99946 15.8261 3.00032 16.3999C3.00032 21.3021 3.00032 23.7539 4.52391 25.2762C6.04749 26.7984 8.49796 26.7997 13.4002 26.7997Z" fill="white"/>
<path fill-rule="evenodd" clip-rule="evenodd" d="M7.22461 21.6C7.22461 21.3414 7.32733 21.0934 7.51018 20.9106C7.69302 20.7277 7.94101 20.625 8.1996 20.625H13.3995C13.6581 20.625 13.9061 20.7277 14.089 20.9106C14.2718 21.0934 14.3745 21.3414 14.3745 21.6C14.3745 21.8586 14.2718 22.1066 14.089 22.2894C13.9061 22.4723 13.6581 22.575 13.3995 22.575H8.1996C7.94101 22.575 7.69302 22.4723 7.51018 22.2894C7.32733 22.1066 7.22461 21.8586 7.22461 21.6ZM15.6745 21.6C15.6745 21.3414 15.7772 21.0934 15.9601 20.9106C16.1429 20.7277 16.3909 20.625 16.6495 20.625H18.5995C18.8581 20.625 19.106 20.7277 19.2889 20.9106C19.4717 21.0934 19.5745 21.3414 19.5745 21.6C19.5745 21.8586 19.4717 22.1066 19.2889 22.2894C19.106 22.4723 18.8581 22.575 18.5995 22.575H16.6495C16.3909 22.575 16.1429 22.4723 15.9601 22.2894C15.7772 22.1066 15.6745 21.8586 15.6745 21.6Z" fill="black"/>
</mask>
<g mask="url(#mask0_233_345)">
<path d="M0.402344 0.799805H31.602V31.9994H0.402344V0.799805Z" fill="black"/>
</g>
</svg>
