<svg width="32" height="32" viewBox="0 0 32 32" fill="none" xmlns="http://www.w3.org/2000/svg">
<rect width="32" height="32" rx="4" fill="white"/>
<mask id="mask0_233_514" style="mask-type:luminance" maskUnits="userSpaceOnUse" x="0" y="9" width="32" height="15">
<path d="M0.820312 9.02276H31.4736V23.79H0.820312V9.02276Z" fill="white"/>
</mask>
<g mask="url(#mask0_233_514)">
<path d="M23.2765 19.2207H21.9082L23.8111 12.599H25.1794L23.2765 19.2207Z" fill="#66686C"/>
<path d="M22.5651 12.8077C22.4702 12.6817 22.3239 12.6181 22.1252 12.6181H14.6012L14.2285 13.915H15.5976V13.9143H21.0732L20.6749 15.3002H15.1991L15.1996 15.2973H13.8311L12.6953 19.248H14.0645L14.8267 16.5964H20.9819C21.1741 16.5964 21.3551 16.5332 21.5252 16.4068C21.695 16.2804 21.8068 16.1244 21.8604 15.9382L22.6225 13.286C22.6781 13.0935 22.6589 12.9338 22.5651 12.8077Z" fill="#66686C"/>
<path d="M11.8993 18.8074C11.8237 19.0696 11.5759 19.251 11.2934 19.251H4.23388C4.04152 19.251 3.89854 19.1878 3.80453 19.0616C3.71058 18.9353 3.69043 18.779 3.74414 18.5928L5.46669 12.6184H6.83622L5.29767 17.9545H10.7759L12.3145 12.6184H13.6837L11.8993 18.8074Z" fill="#66686C"/>
<path d="M27.5421 12.6111L29.2744 15.9305L25.6328 19.249L27.5421 12.6111Z" fill="#27803B"/>
<path d="M26.3281 12.6111L28.0591 15.9305L24.416 19.249L26.3281 12.6111Z" fill="#E9661C"/>
</g>
</svg>
