<svg width="26" height="17" viewBox="0 0 26 17" fill="none" xmlns="http://www.w3.org/2000/svg">
<path d="M23.2509 0.400391H1.77989C1.01801 0.400391 0.400391 1.01801 0.400391 1.77989V14.6266C0.400391 15.3885 1.01801 16.0061 1.77989 16.0061H23.2509C24.0128 16.0061 24.6304 15.3885 24.6304 14.6266V1.77989C24.6304 1.01801 24.0128 0.400391 23.2509 0.400391Z" fill="#F9F9F9" stroke="black" stroke-width="0.8" stroke-linecap="round" stroke-linejoin="round"/>
<path d="M6.66742 8.34816L4.57766 5.49027C4.49803 5.38119 4.42096 5.27025 4.34653 5.15756C4.28609 5.06629 4.22819 4.97337 4.17289 4.87891H4.15641C4.16484 5.02456 4.17098 5.17789 4.17519 5.33734C4.17902 5.49718 4.18132 5.67195 4.18132 5.86169V8.34816H2.5293V2.42578H4.21429L6.21742 5.14339C6.24195 5.17903 6.27223 5.22158 6.30826 5.27141C6.3803 5.37149 6.44983 5.47335 6.51678 5.5769C6.54859 5.62673 6.57236 5.67043 6.58922 5.70914H6.6057C6.59144 5.60162 6.58376 5.49333 6.58271 5.38487C6.58146 5.28368 6.58083 5.18249 6.58079 5.0813V2.42578H8.23282V8.34779L6.66742 8.34816ZM9.4015 8.34816V2.42578H13.0896V3.82138H11.1858V4.68458H12.9743V6.08056H11.1858V6.95218H13.2261V8.34816H9.4015ZM17.0714 3.82138V8.34816H15.2787V3.82138H13.6228V2.42578H18.7479V3.82138H17.0714Z" fill="#265697"/>
<path d="M5.45278 12.4667C5.45278 12.6273 5.42518 12.7768 5.36922 12.9144C5.31284 13.0533 5.22336 13.1764 5.10857 13.2728C4.99052 13.374 4.83911 13.453 4.65398 13.5105C4.46923 13.568 4.24653 13.5963 3.98627 13.5963H2.30664V9.91356H3.87051C4.36229 9.91356 4.7291 9.98791 4.9725 10.137C5.21551 10.2861 5.3374 10.5088 5.3374 10.8047C5.3397 10.961 5.28828 11.1134 5.19175 11.2363C5.14888 11.292 5.09873 11.3416 5.04265 11.3839C4.89699 11.4943 4.72775 11.5695 4.54819 11.6035V11.6139C4.69231 11.6307 4.82033 11.6675 4.93225 11.7227C5.04456 11.7787 5.13924 11.8454 5.2159 11.9232C5.29332 12.001 5.35197 12.0873 5.39222 12.1812C5.43246 12.2755 5.45239 12.3705 5.45239 12.4663L5.45278 12.4667ZM4.15837 10.9975C4.15837 10.8756 4.11046 10.7886 4.01463 10.7354C3.91881 10.6825 3.78772 10.6556 3.62175 10.6556H3.4163V11.3517H3.73712C3.80075 11.3517 3.85825 11.3429 3.91076 11.3249C3.96289 11.3069 4.00735 11.2819 4.04415 11.2505C4.08041 11.2196 4.10934 11.1809 4.12886 11.1374C4.1486 11.0935 4.15867 11.0457 4.15837 10.9975ZM4.27413 12.4614C4.27523 12.385 4.25117 12.3104 4.20565 12.2491C4.16014 12.1878 4.0957 12.1432 4.0223 12.1221C3.96758 12.1045 3.91037 12.0958 3.85288 12.0965H3.41592V12.8489H3.78618C3.85786 12.8489 3.92417 12.8405 3.98397 12.8232C4.04376 12.8063 4.09512 12.7814 4.13805 12.7488C4.18233 12.7155 4.21785 12.672 4.24155 12.6219C4.26526 12.5718 4.27644 12.5167 4.27413 12.4614ZM7.30221 13.5963V13.1958H7.29186C7.21534 13.3353 7.10436 13.4528 6.9695 13.5373C6.8365 13.6197 6.67704 13.6607 6.49037 13.6607C6.35699 13.6607 6.24046 13.6396 6.14119 13.5979C6.04743 13.5597 5.96331 13.5011 5.89491 13.4265C5.8265 13.3519 5.77552 13.263 5.74562 13.1663C5.71249 13.0638 5.69605 12.9566 5.69694 12.8489C5.69694 12.7531 5.70959 12.6572 5.73527 12.5614C5.76095 12.4656 5.80848 12.3767 5.87786 12.2942C5.94685 12.2122 6.04383 12.1409 6.16802 12.0796C6.29221 12.019 6.45281 11.9761 6.64944 11.95L7.30182 11.8657C7.30255 11.8232 7.29154 11.7813 7.27001 11.7446C7.24749 11.7078 7.21713 11.6763 7.18108 11.6526C7.13996 11.6252 7.09446 11.6052 7.04654 11.5932C6.99068 11.579 6.93323 11.572 6.87559 11.5725C6.7882 11.5725 6.70157 11.5801 6.61495 11.5943C6.53077 11.6084 6.44755 11.6277 6.3658 11.6522C6.28903 11.6751 6.21354 11.7021 6.13965 11.7331C6.07311 11.761 6.00765 11.7914 5.9434 11.8243V11.1129C6.00665 11.0857 6.08254 11.0592 6.1707 11.0332C6.25886 11.0075 6.352 10.9853 6.45051 10.9665C6.54902 10.9477 6.64791 10.932 6.74719 10.9205C6.84684 10.9082 6.93999 10.9025 7.027 10.9025C7.26694 10.9025 7.46779 10.9285 7.63069 10.9807C7.79321 11.0328 7.9243 11.111 8.02358 11.2145C8.12324 11.318 8.19415 11.4471 8.23669 11.6024C8.27962 11.7572 8.30109 11.9382 8.30109 12.1455V13.5963H7.30221ZM6.93232 12.4433C6.85885 12.4526 6.78922 12.4815 6.7307 12.5269C6.70538 12.5484 6.68536 12.5755 6.6722 12.606C6.65904 12.6365 6.65309 12.6696 6.65481 12.7028C6.65481 12.7316 6.65941 12.7607 6.66899 12.7899C6.67867 12.8205 6.69494 12.8487 6.71666 12.8724C6.73838 12.8961 6.76502 12.9148 6.79471 12.9271C6.83339 12.9428 6.87488 12.9503 6.9166 12.9493C6.96931 12.9498 7.02149 12.9388 7.06954 12.9171C7.11653 12.8958 7.15817 12.8642 7.19143 12.8247C7.22593 12.7845 7.25276 12.7362 7.27231 12.6795C7.29224 12.6231 7.30182 12.5606 7.30182 12.492V12.392L6.93232 12.4433ZM10.497 13.5963V12.1608C10.497 12.075 10.4905 12.0033 10.4779 11.9451C10.4681 11.8943 10.4479 11.8461 10.4184 11.8036C10.3939 11.7694 10.3601 11.7428 10.3211 11.727C10.278 11.7108 10.2322 11.703 10.1862 11.704C10.1387 11.7024 10.0916 11.7138 10.0501 11.7369C10.0127 11.7588 9.98092 11.7891 9.95733 11.8255C9.93357 11.8623 9.91555 11.9044 9.90367 11.9516C9.89165 11.9989 9.88559 12.0476 9.88565 12.0965V13.5963H8.79171V10.9669H9.88565V11.3774H9.896C9.93165 11.3161 9.9765 11.2563 10.0294 11.1992C10.0827 11.1417 10.1436 11.0911 10.2134 11.0474C10.3675 10.9507 10.5462 10.9003 10.7282 10.9021C10.8512 10.9021 10.9658 10.9205 11.0708 10.9561C11.1762 10.9922 11.2675 11.0527 11.3445 11.1374C11.4212 11.2218 11.4817 11.3341 11.5254 11.4736C11.5691 11.6135 11.5906 11.786 11.5906 11.991V13.5963H10.497ZM13.7792 13.5963L13.1935 12.2456H13.1832V13.5963H12.0893V9.70312H13.1832V12.2019H13.1935L13.7252 10.9665H14.9579L14.2465 12.1712L14.9989 13.5963H13.7792ZM16.3703 10.2578C16.3703 10.3294 16.3565 10.3973 16.3293 10.4609C16.3024 10.5235 16.2621 10.5795 16.2113 10.625C16.1599 10.671 16.0963 10.7081 16.0196 10.7354C15.9358 10.764 15.8476 10.7778 15.759 10.7764C15.6651 10.7764 15.5804 10.7626 15.5048 10.7342C15.4345 10.7089 15.3696 10.6705 15.3136 10.6211C15.2625 10.5754 15.2215 10.5194 15.1935 10.4568C15.1654 10.3942 15.1508 10.3264 15.1507 10.2578C15.1507 10.1788 15.166 10.1083 15.1967 10.0458C15.2273 9.98332 15.2699 9.93042 15.3239 9.88673C15.3776 9.84303 15.442 9.80969 15.5163 9.78631C15.5911 9.76331 15.672 9.75181 15.7594 9.75181C15.8514 9.75181 15.9357 9.76407 16.0108 9.78898C16.0863 9.8139 16.1503 9.84839 16.2036 9.89286C16.2569 9.93737 16.2995 9.99325 16.3284 10.0564C16.3572 10.1195 16.3716 10.1883 16.3703 10.2578ZM15.212 13.5963V10.9669H16.3063V13.5963H15.212ZM18.5406 13.5963V12.1608C18.5406 12.075 18.5341 12.0033 18.5214 11.9451C18.5118 11.8943 18.4917 11.8461 18.4624 11.8036C18.4377 11.7693 18.4038 11.7427 18.3647 11.727C18.3216 11.7108 18.2758 11.703 18.2297 11.704C18.1822 11.7024 18.1352 11.7138 18.0937 11.7369C18.0564 11.7588 18.0248 11.7892 18.0013 11.8255C17.9771 11.8623 17.9591 11.9044 17.9476 11.9516C17.9355 11.9989 17.9293 12.0476 17.9292 12.0965V13.5963H16.8353V10.9669H17.9292V11.3774H17.9396C17.9756 11.3161 18.0201 11.2563 18.0734 11.1992C18.1262 11.1417 18.1876 11.0911 18.257 11.0474C18.4111 10.9507 18.5898 10.9003 18.7717 10.9021C18.8951 10.9021 19.0094 10.9205 19.1148 10.9561C19.2198 10.9922 19.311 11.0527 19.3881 11.1374C19.4651 11.2218 19.5257 11.3341 19.569 11.4736C19.6127 11.6135 19.6345 11.786 19.6345 11.991V13.5963H18.5406ZM22.9838 13.2291C22.9838 13.3694 22.97 13.5066 22.9424 13.64C22.9158 13.7713 22.8713 13.8984 22.8102 14.0176C22.6802 14.27 22.4739 14.4749 22.2207 14.6032C22.0682 14.68 21.9064 14.7366 21.7392 14.7715C21.5344 14.8139 21.3256 14.8341 21.1164 14.8317C20.9564 14.8318 20.7967 14.8189 20.6388 14.7934C20.573 14.7826 20.5078 14.7688 20.4433 14.752C20.3854 14.7366 20.3398 14.7213 20.3076 14.706V13.8481C20.4098 13.9096 20.5189 13.9588 20.6327 13.9946C20.7016 14.0168 20.7752 14.0356 20.8534 14.0509C20.9312 14.0662 21.0087 14.0739 21.0857 14.0739C21.2191 14.0739 21.336 14.057 21.4364 14.0229C21.5361 13.9884 21.6204 13.9417 21.6894 13.8826C21.7576 13.8236 21.809 13.7554 21.8435 13.6772C21.8776 13.5994 21.8949 13.5162 21.8949 13.4269V13.2651H21.8845C21.8105 13.3739 21.713 13.4646 21.5993 13.5308C21.4533 13.6175 21.2862 13.6624 21.1164 13.6603C20.9454 13.6603 20.7917 13.6297 20.6557 13.5683C20.5212 13.5081 20.4025 13.4175 20.3088 13.3039C20.2091 13.1802 20.1353 13.0377 20.0918 12.8849C20.0401 12.7056 20.0151 12.5196 20.0175 12.333C20.0175 12.0949 20.0508 11.8864 20.1175 11.7074C20.1842 11.5284 20.2727 11.3797 20.3831 11.2605C20.4939 11.1416 20.6208 11.052 20.7634 10.9922C20.9035 10.9329 21.0542 10.9024 21.2065 10.9025C21.2988 10.9025 21.3812 10.9121 21.4529 10.932C21.525 10.9515 21.5882 10.9772 21.643 11.0087C21.6978 11.0405 21.745 11.0765 21.7841 11.1167C21.8236 11.157 21.8569 11.1976 21.8845 11.2386H21.8949V10.9665H22.9834L22.9838 13.2291ZM21.9129 12.2069C21.9129 12.152 21.9067 12.0953 21.8949 12.0363C21.8836 11.9793 21.8628 11.9246 21.8332 11.8745C21.8039 11.8255 21.7639 11.7837 21.7162 11.7523C21.6612 11.718 21.5971 11.701 21.5323 11.7036C21.4724 11.7027 21.4134 11.7182 21.3617 11.7484C21.3097 11.7799 21.2657 11.8231 21.2333 11.8745C21.1984 11.9282 21.172 11.9922 21.1539 12.0658C21.1359 12.1394 21.1271 12.2199 21.1271 12.3073C21.1271 12.4767 21.1578 12.6112 21.2191 12.7105C21.2808 12.8098 21.3786 12.8592 21.5119 12.8592C21.5771 12.8592 21.6346 12.845 21.6856 12.8171C21.7364 12.7885 21.7796 12.748 21.8113 12.699C21.8447 12.6484 21.8699 12.589 21.8872 12.5204C21.9049 12.4472 21.9135 12.3722 21.9129 12.2969V12.2069Z" fill="#265697"/>
</svg>
