<svg width="107" height="24" viewBox="0 0 107 24" fill="none" xmlns="http://www.w3.org/2000/svg">
<rect width="33" height="24" rx="4" fill="white"/>
<rect x="0.5" y="0.5" width="32" height="23" rx="3.5" stroke="black" stroke-opacity="0.05"/>
<g clip-path="url(#clip0_233_571)">
<path d="M20.2835 8C18.5085 8 16.9222 8.90877 16.9222 10.5874C16.9222 12.5127 19.7355 12.6457 19.7355 13.613C19.7355 14.0203 19.263 14.3849 18.4557 14.3849C17.3103 14.3849 16.4542 13.8755 16.4542 13.8755L16.0878 15.5697C16.0878 15.5697 17.0741 16 18.3834 16C20.3241 16 21.8514 15.0467 21.8514 13.3392C21.8514 11.3046 19.0263 11.1756 19.0263 10.278C19.0263 9.95891 19.4142 9.60944 20.219 9.60944C21.1271 9.60944 21.8679 9.97992 21.8679 9.97992L22.2265 8.34379C22.2265 8.34379 21.4202 8 20.2833 8H20.2835ZM4.04304 8.12358L4 8.37048C4 8.37048 4.74675 8.50542 5.41942 8.77482C6.28554 9.08351 6.3471 9.26343 6.49299 9.8215L8.08233 15.8725H10.213L13.4952 8.12358H11.3696L9.26051 13.3921L8.3999 8.92607C8.32107 8.41496 7.92117 8.12333 7.43193 8.12333H4.04329L4.04304 8.12358ZM14.3501 8.12358L12.6827 15.8725H14.7097L16.3711 8.12358H14.3501ZM25.6554 8.12358C25.1667 8.12358 24.9077 8.38209 24.7177 8.83364L21.748 15.8725H23.8736L24.2848 14.6992H26.8744L27.1244 15.8725H29L27.3639 8.12358H25.6554ZM25.9319 10.2172L26.5621 13.1249H24.8741L25.9322 10.2172H25.9319Z" fill="#1434CB"/>
</g>
<rect x="37" width="33" height="24" rx="4" fill="white"/>
<rect x="37.5" y="0.5" width="32" height="23" rx="3.5" stroke="black" stroke-opacity="0.05"/>
<g clip-path="url(#clip1_233_571)">
<path d="M50.236 6.5C48.8443 6.50472 47.5113 7.08748 46.5296 8.12033C45.5479 9.15319 44.9978 10.5517 45 12.0089C45.0023 13.466 45.5567 14.8627 46.5416 15.8922C47.5265 16.9217 48.8613 17.5 50.253 17.5C51.6447 17.5 52.9795 16.9217 53.9644 15.8922C54.9493 14.8627 55.5037 13.466 55.506 12.0089C55.5082 10.5517 54.9581 9.15319 53.9764 8.12033C52.9947 7.08748 51.6617 6.50472 50.27 6.5L50.236 6.5Z" fill="#EB001B"/>
<path d="M56.7301 6.5C55.3384 6.50472 54.0054 7.08748 53.0237 8.12033C52.042 9.15319 51.4919 10.5517 51.4941 12.0089C51.4964 13.466 52.0508 14.8627 53.0357 15.8922C54.0206 16.9217 55.3554 17.5 56.7471 17.5C58.1389 17.5 59.4737 16.9217 60.4586 15.8922C61.4434 14.8627 61.9979 13.466 62.0001 12.0089C62.0024 10.5517 61.4523 9.15319 60.4706 8.12033C59.4889 7.08748 58.1558 6.50472 56.7641 6.5L56.7301 6.5Z" fill="#F79E1B"/>
<path d="M53.5004 7.6748C52.8746 8.18943 52.3687 8.84616 52.0208 9.59543C51.673 10.3447 51.4922 11.1669 51.4922 12C51.4922 12.8332 51.673 13.6554 52.0208 14.4047C52.3687 15.1539 52.8746 15.8107 53.5004 16.3253C54.1261 15.8107 54.632 15.1539 54.9799 14.4047C55.3278 13.6554 55.5086 12.8332 55.5086 12C55.5086 11.1669 55.3278 10.3447 54.9799 9.59543C54.632 8.84616 54.1261 8.18943 53.5004 7.6748Z" fill="#FF5F00"/>
</g>
<rect x="74" width="33" height="24" rx="4" fill="#006FCF"/>
<g clip-path="url(#clip2_233_571)">
<path d="M85 23.5H107V0.5H85V23.5Z" fill="#006FCF"/>
<path d="M92.9688 19.8606L101.668 19.8799L103.034 18.2864L104.41 19.8739H106.999V17.5491L105.377 15.7207L106.999 13.909V11.6325L92.9688 11.6193V19.8606Z" fill="white"/>
<path fill-rule="evenodd" clip-rule="evenodd" d="M93.9062 18.957V12.5262H99.1219V14.0076H95.5949V15.0132H99.0378V16.4701H95.5949V17.4578H99.1219V18.957L93.9062 18.957Z" fill="#006FCF"/>
<path d="M104.862 12.5263L103.093 14.5646L101.33 12.5263H99.0957L101.982 15.738L99.0958 18.957H101.269L103.045 16.8983L104.84 18.957H106.999V18.8657L104.175 15.738L106.999 12.577V12.5263H104.862Z" fill="#006FCF"/>
<path d="M103.812 4.3046L103.089 6.41736L102.369 4.3046H98.1939V7.1245L97.0059 4.3046H93.6239L90.1504 12.5459H107V4.3046H103.812Z" fill="white"/>
<path fill-rule="evenodd" clip-rule="evenodd" d="M94.499 8.89633L95.3175 6.8509L96.1355 8.89633H94.499ZM94.2645 5.19964L91.5352 11.625H93.4071L93.922 10.3384H96.7121L97.2266 11.625H99.1452L96.4272 5.19964H94.2645Z" fill="#006FCF"/>
<path d="M99.1191 11.6246L100.774 11.6247V7.21108L102.344 11.6247H103.832L105.37 7.22607V11.6396L107 11.6247V5.19933H104.467L103.104 9.15895L101.751 5.20881L99.1191 5.1993V11.6246Z" fill="#006FCF"/>
</g>
<defs>
<clipPath id="clip0_233_571">
<rect width="25" height="8" fill="white" transform="translate(4 8)"/>
</clipPath>
<clipPath id="clip1_233_571">
<rect width="17" height="11" fill="white" transform="translate(45 6.5)"/>
</clipPath>
<clipPath id="clip2_233_571">
<rect width="22" height="23" fill="white" transform="translate(85 0.5)"/>
</clipPath>
</defs>
</svg>
